# AST/ASF file generated using VICON BodyLanguage
# -----------------------------------------------
:version 1.10
:name VICON
:units
  mass 1.0
  length 0.45
  angle deg
:documentation
   .ast/.asf automatically generated from VICON data using
   VICON BodyBuilder and BodyLanguage model FoxedUp or BRILLIANT.MOD
:root
   order TX TY TZ RX RY RZ
   axis XYZ
   position 0 0 0  
   orientation 0 0 0 
:bonedata
  begin
     id 1 
     name lhipjoint
     direction 0.650112 -0.723553 0.232005 
     length 2.45805 
     axis 0 0 0  XYZ
  end
  begin
     id 2 
     name lfemur
     direction 0.34202 -0.939693 0  
     length 7.00073  
     axis 0 0 20  XYZ
    dof rx ry rz
    limits (-160.0 20.0)
           (-70.0 70.0)
           (-60.0 70.0)
  end
  begin
     id 3 
     name ltibia
     direction 0.34202 -0.939693 0   
     length 7.8748   
     axis 0 0 20   XYZ
    dof rx
    limits (-10.0 170.0)
  end
  begin
     id 4 
     name lfoot
     direction 0.0542825 -0.14914 0.987325   
     length 1.75978   
     axis -90 7.62852e-016 20   XYZ
    dof rx rz
    limits (-45.0 90.0)
           (-70.0 20.0)
  end
  begin
     id 5 
     name ltoes
     direction 1.53509e-011 -4.21906e-011 1   
     length 0.893912   
     axis -90 7.62852e-016 20   XYZ
    dof rx
    limits (-90.0 20.0)
  end
  begin
     id 6 
     name rhipjoint
     direction -0.637897 -0.733345 0.235145   
     length 2.42522  
     axis 0 0 0  XYZ 
  end
  begin
     id 7 
     name rfemur
     direction -0.34202 -0.939693 0   
     length 7.02549   
     axis 0 0 -20   XYZ
    dof rx ry rz
    limits (-160.0 20.0)
           (-70.0 70.0)
           (-70.0 60.0)
  end
  begin
     id 8 
     name rtibia
     direction -0.34202 -0.939693 0   
     length 7.71512   
     axis 0 0 -20   XYZ
    dof rx
    limits (-10.0 170.0)
 end
 begin
     id 9 
     name rfoot
     direction -0.0822618 -0.226012 0.970645   
     length 1.90014  
     axis -90 -7.62852e-016 -20   XYZ
    dof rx rz
    limits (-45.0 90.0)
           (-20.0 70.0)
  end
  begin
     id 10 
     name rtoes
     direction -1.53542e-011 -4.21872e-011 1   
     length 0.957341   
     axis -90 -7.62852e-016 -20   XYZ
    dof rx
    limits (-90.0 20.0)
  end
  begin
     id 11 
     name lowerback
     direction -0.0022947 0.999774 -0.0211557   
     length 1.89909   
     axis 0 0 0   XYZ
    dof rx ry rz
    limits (-20.0 45.0)
           (-30.0 30.0)
           (-30.0 30.0)
  end
  begin
     id 12 
     name upperback
     direction 0.0107737 0.998635 0.0511027   
     length 1.8853   
     axis 0 0 0   XYZ
    dof rx ry rz
    limits (-20.0 45.0)
           (-30.0 30.0)
           (-30.0 30.0)
  end
  begin
     id 13 
     name thorax
     direction 0.011824 0.998136 0.0598754   
     length 1.88911   
     axis 0 0 0   XYZ
    dof rx ry rz
    limits (-20.0 45.0)
           (-30.0 30.0)
           (-30.0 30.0)
  end
  begin
     id 14 
     name lowerneck
     direction -0.0685355 0.990319 0.120714   
     length 1.91222   
     axis 0 0 0   XYZ
    dof rx ry rz
    limits (-20.0 45.0)
           (-30.0 30.0)
           (-30.0 30.0)
  end
  begin
     id 15 
     name upperneck
     direction 0.0886204 0.955665 -0.280805   
     length 1.92526   
     axis 0 0 0   XYZ
    dof rx ry rz
    limits (-20.0 45.0)
           (-30.0 30.0)
           (-30.0 30.0)
  end
  begin
     id 16
     name head
     direction 0.0233423 0.993502 -0.111393  
     length 1.96056  
     axis 0 0 0   XYZ
    dof rx ry rz
    limits (-20.0 45.0)
           (-30.0 30.0)
           (-30.0 30.0)
  end
  begin
     id 17 
     name lclavicle
     direction 0.941873 0.32922 0.0670041  
     length 3.31705  
     axis 0 0 0   XYZ
    dof ry rz
    limits (-20.0 10.0)
           (0.0 20.0)
  end
  begin
     id 18 
     name lhumerus
     direction 1 -4.4898e-011 3.38707e-028   
     length 5.29277   
     axis 180 -30 -90   XYZ
    dof rx ry rz
    limits (-60.0 90.0)
           (-90.0 90.0)
           (-90.0 90.0)
  end
  begin
     id 19
     name lradius
     direction 1 -4.48952e-011 1.63213e-028   
     length 2.85226   
     axis 180 -30 -90   XYZ
    dof rx
    limits (-10.0 170.0)
  end
  begin
     id 20
     name lwrist
     direction 1 -4.49001e-011 1.27856e-027   
     length 1.42613   
     axis -1.61767e-015 90 90   XYZ
    dof ry
    limits (-180.0 0.0)
 end
  begin
     id 21 
     name lhand
     direction 1 -4.48976e-011 2.55931e-027   
     length 0.602097   
     axis -1.63363e-015 90 90   XYZ
    dof rx rz
    limits (-90.0 90.0)
           (-45.0 45.0)
  end
  begin
     id 22 
     name lfingers
     direction 1 -4.48986e-011 5.11684e-027   
     length 0.485426   
     axis -3.26723e-015 90 90   XYZ
    dof rx
    limits (0.0 90.0)
  end
  begin
     id 23
     name lthumb
     direction 0.707107 -6.34915e-011 0.707107   
     length 0.696978   
     axis -90 45 -2.25915e-014   XYZ
    dof rx rz
    limits (-45.0 45.0)
           (-45.0 45.0)
  end
  begin
     id 24 
     name rclavicle
     direction -0.939974 0.327078 0.0973096   
     length 3.10337  
     axis 0 0 0   XYZ 
    dof ry rz
    limits (-10.0 20.0)
           (-20.0 0.0)
  end
  begin
     id 25 
     name rhumerus
     direction -1 -4.48975e-011 1.83745e-027  
     length 5.13304   
     axis 180 30 90   XYZ
    dof rx ry rz
    limits (-90.0 60.0)
           (-90.0 90.0)
           (-90.0 90.0)
  end
  begin
     id 26 
     name rradius
     direction -1 -4.48977e-011 7.1775e-029   
     length 2.74305   
     axis 180 30 90   XYZ
    dof rx
    limits (-10.0 170.0)
  end
  begin
     id 27 
     name rwrist
     direction -1 -4.48977e-011 1.27963e-027   
     length 1.37152   
     axis -1.61767e-015 -90 -90   XYZ
    dof ry
    limits (-180.0 0.0)
  end
  begin
     id 28
     name rhand
     direction -1 -4.4888e-011 2.56782e-027   
     length 0.767976   
     axis -1.63363e-015 -90 -90   XYZ
    dof rx rz
    limits (-90.0 90.0)
           (-45.0 45.0)
  end
  begin
     id 29
     name rfingers
     direction -1 -4.48947e-011 5.12384e-027   
     length 0.619162   
     axis -3.26723e-015 -90 -90   XYZ
    dof rx
    limits (0.0 90.0)
  end
  begin
     id 30
     name rthumb
     direction -0.707107 -6.34857e-011 0.707107   
     length 0.888997   
     axis -90 -45 2.25915e-014   XYZ
    dof rx rz
    limits (-45.0 45.0)
           (-45.0 45.0)
  end
:hierarchy
  begin
    root lhipjoint rhipjoint lowerback
    lhipjoint lfemur
    lfemur ltibia
    ltibia lfoot
    lfoot ltoes
    rhipjoint rfemur
    rfemur rtibia
    rtibia rfoot
    rfoot rtoes
    lowerback upperback
    upperback thorax
    thorax lowerneck lclavicle rclavicle
    lowerneck upperneck
    upperneck head
    lclavicle lhumerus
    lhumerus lradius
    lradius lwrist
    lwrist lhand lthumb
    lhand lfingers
    rclavicle rhumerus
    rhumerus rradius
    rradius rwrist
    rwrist rhand rthumb
    rhand rfingers
  end

#!OML:ASF F:\VICON\USERDATA\INSTALL\rory3\rory3.ASF
:FULLY-SPECIFIED
:DEGREES
114
root 0.320086 16.5865 -2.13914 17.5426 -0.0135003 -0.807036
lowerback 21.975 0.183811 -0.761857
upperback 6.93098 0.171122 1.48333
thorax -4.70983 0.0697554 1.9856
lowerneck -2.52562 -9.20974 -19.4992
upperneck -15.8731 -9.97057 29.8548
head -1.07157 -5.40153 12.9772
rclavicle 4.07509e-015 -1.66979e-014
rhumerus 18.9364 10.9763 -83.2325
rradius 105.358
rwrist 25.682
rhand 29.4933 6.64573
rfingers 7.12502
rthumb 53.2508 -12.6865
lclavicle 4.07509e-015 -1.66979e-014
lhumerus 24.4849 -13.347 75.3608
lradius 106.616
lwrist -10.9473
lhand 25.0904 37.0665
lfingers 7.12502
lthumb 49.2441 58.6773
rfemur -42.9487 2.79413 16.6282
rtibia 43.2855
rfoot -18.8527 -4.71315
rtoes -19.3678
lfemur -44.7519 -3.17673 -15.8646
ltibia 45.6979
lfoot -17.2974 1.09122
ltoes -17.9319
115
root 0.320727 16.6195 -2.1316 17.6886 0.0971327 -0.778153
lowerback 21.9414 0.0970509 -0.646891
upperback 6.85223 0.0829569 1.4532
thorax -4.7746 0.0286629 1.90993
lowerneck -2.66281 -9.22371 -19.4026
upperneck -15.6776 -9.99964 29.8769
head -0.99007 -5.40723 12.9453
rclavicle -2.38542e-015 5.56597e-015
rhumerus 18.188 11.1775 -83.6766
rradius 105.114
rwrist 25.8925
rhand 29.4371 7.05556
rfingers 7.12502
rthumb 53.2001 -12.3092
lclavicle -2.38542e-015 5.56597e-015
lhumerus 23.5759 -13.7689 75.7315
lradius 106.647
lwrist -10.9068
lhand 25.8747 37.0572
lfingers 7.12502
lthumb 49.963 58.2993
rfemur -42.6886 2.88511 16.5426
rtibia 42.6091
rfoot -18.6089 -4.84284
rtoes -19.4032
lfemur -44.5333 -3.4453 -15.7889
ltibia 45.0468
lfoot -17.0454 1.16234
ltoes -17.3317
116
root 0.322506 16.6478 -2.12406 17.8322 0.173247 -0.798529
lowerback 21.9033 -0.00239952 -0.544984
upperback 6.77753 -0.021459 1.4712
thorax -4.83229 -0.0209694 1.89768
lowerneck -2.75466 -9.20965 -19.3704
upperneck -15.5682 -9.98547 29.8586
head -0.951406 -5.39165 12.9229
rclavicle -2.08724e-015 6.65929e-015
rhumerus 17.5506 11.4674 -84.0529
rradius 104.938
rwrist 25.9981
rhand 29.8105 7.31195
rfingers 7.12502
rthumb 53.5365 -11.8347
lclavicle -2.08724e-015 6.65929e-015
lhumerus 22.7482 -14.0146 76.1285
lradius 106.557
lwrist -10.8852
lhand 25.9095 36.8639
lfingers 7.12502
lthumb 49.9948 58.0893
rfemur -42.4696 2.97999 16.5141
rtibia 42.0057
rfoot -18.3774 -4.98208
rtoes -19.6335
lfemur -44.345 -3.58752 -15.7092
ltibia 44.4908
lfoot -16.8687 1.34255
ltoes -18.1271
117
root 0.321433 16.6708 -2.11952 17.9221 0.188574 -0.85544
lowerback 21.9633 -0.0410309 -0.526656
upperback 6.69647 -0.0636057 1.51304
thorax -4.94908 -0.0403532 1.9441
lowerneck -2.81335 -9.20429 -19.2955
upperneck -15.4578 -9.98964 29.8177
head -0.918615 -5.3886 12.8834
rclavicle 6.75868e-015 -7.55382e-015
rhumerus 17.0186 11.7525 -84.3324
rradius 104.7
rwrist 25.9461
rhand 29.9632 7.27275
rfingers 7.12502
rthumb 53.6738 -11.7834
lclavicle 6.75868e-015 -7.55382e-015
lhumerus 22.029 -14.1868 76.5458
lradius 106.506
lwrist -10.753
lhand 25.8491 36.9025
lfingers 7.12502
lthumb 49.9396 58.1569
rfemur -42.2564 3.15136 16.5219
rtibia 41.4916
rfoot -18.1716 -5.09265
rtoes -19.8451
lfemur -44.1706 -3.60979 -15.6145
ltibia 44.0443
lfoot -16.7582 1.48488
ltoes -19.0535
118
root 0.319682 16.688 -2.11804 18.0214 0.248888 -0.901639
lowerback 21.986 -0.058047 -0.420196
upperback 6.6469 -0.0629074 1.5039
thorax -5.01477 -0.0391371 1.87376
lowerneck -2.82226 -9.23718 -19.2384
upperneck -15.4107 -10.0375 29.9058
head -0.886535 -5.41789 12.8972
rclavicle 5.46658e-015 -5.66536e-015
rhumerus 16.6501 11.8278 -84.5855
rradius 104.524
rwrist 25.8363
rhand 29.914 7.2211
rfingers 7.12502
rthumb 53.6297 -11.8643
lclavicle 5.46658e-015 -5.66536e-015
lhumerus 21.5663 -14.4026 76.902
lradius 106.548
lwrist -10.5537
lhand 25.739 37.0234
lfingers 7.12502
lthumb 49.8387 58.3304
rfemur -42.1214 3.27964 16.5304
rtibia 41.079
rfoot -18.0485 -5.18906
rtoes -19.9549
lfemur -44.1024 -3.68568 -15.5023
ltibia 43.7197
lfoot -16.6004 1.42988
ltoes -18.6507
119
root 0.319626 16.6998 -2.11812 18.0747 0.372616 -1.03437
lowerback 21.937 -0.109517 -0.173723
upperback 6.69188 -0.0756732 1.53449
thorax -4.94116 -0.0460967 1.76831
lowerneck -2.78077 -9.27422 -19.2707
upperneck -15.5519 -10.0635 30.0768
head -0.9063 -5.44541 12.9752
rclavicle 3.97569e-016 -6.36111e-015
rhumerus 16.4815 11.8021 -84.7374
rradius 104.506
rwrist 25.9593
rhand 29.9031 7.47208
rfingers 7.12502
rthumb 53.6198 -11.6198
lclavicle 3.97569e-016 -6.36111e-015
lhumerus 21.3775 -14.45 77.253
lradius 106.612
lwrist -10.4845
lhand 25.9097 37.1145
lfingers 7.12502
lthumb 49.995 58.3399
rfemur -42.0088 3.33791 16.6616
rtibia 40.8019
rfoot -17.9656 -5.31796
rtoes -20.0911
lfemur -44.0661 -3.7964 -15.2842
ltibia 43.5079
lfoot -16.4871 1.2765
ltoes -17.5002
